<?xml version="1.0" encoding="utf-8"?>
<!-- Generator: Adobe Illustrator 15.0.0, SVG Export Plug-In . SVG Version: 6.00 Build 0)  -->
<!DOCTYPE svg PUBLIC "-//W3C//DTD SVG 1.0//EN" "http://www.w3.org/TR/2001/REC-SVG-20010904/DTD/svg10.dtd">
<svg version="1.0" id="Layer_1" xmlns="http://www.w3.org/2000/svg" xmlns:xlink="http://www.w3.org/1999/xlink" x="0px" y="0px"
	 width="56px" height="56px" viewBox="0 0 56 56" enable-background="new 0 0 56 56" xml:space="preserve">
<path id="facebook" fill=" " d="M30.482,23.525c0.037-1.338-0.21-3.201,0.206-3.837c0.761-1.164,3.798-0.861,3.798-0.861
	v-4.121c-4.792,0-6.359-0.201-8.005,1.47c-1.464,1.485-1.509,4.404-1.629,7.35h-2.352v4.028h2.375c0,4.202,0.002,8.807,0,12.754
	h5.582V27.503h3.217c0.25-1.354,0.494-2.414,0.835-3.979L30.482,23.525z"/>
<path id="instagram" fill=" " d="M38.105,14.703h-19.2c-1.768,0-3.2,1.433-3.2,3.2l0,0v19.201c0,1.767,1.434,3.199,3.2,3.199
	l0,0h19.2c1.768,0,3.199-1.433,3.199-3.199V17.903C41.305,16.136,39.873,14.704,38.105,14.703z M23.575,26.973
	c0.006-0.051,0.019-0.1,0.022-0.15c0.018-0.123,0.034-0.246,0.062-0.367c0.013-0.055,0.027-0.106,0.042-0.16
	c0.028-0.115,0.061-0.229,0.096-0.34l0.058-0.156c0.04-0.107,0.082-0.216,0.13-0.32l0.021-0.055h0.005
	c0.809-1.755,2.563-2.879,4.497-2.881c1.934,0.001,3.688,1.126,4.499,2.881h0.006c0.008,0.018,0.014,0.036,0.02,0.055
	c0.047,0.104,0.088,0.213,0.129,0.32c0.021,0.053,0.039,0.104,0.059,0.156c0.035,0.111,0.064,0.225,0.096,0.34
	c0.014,0.054,0.029,0.105,0.041,0.16c0.025,0.121,0.045,0.244,0.063,0.367c0.008,0.051,0.02,0.1,0.021,0.15
	c0.293,2.724-1.676,5.169-4.398,5.462c-2.725,0.293-5.171-1.677-5.464-4.4C23.537,27.682,23.537,27.326,23.575,26.973z
	 M38.426,36.145c0,0.707-0.572,1.279-1.279,1.279h-17.28c-0.707,0-1.279-0.572-1.279-1.279V25.424h2.359
	c-1.147,4.176,1.306,8.49,5.479,9.639c0.678,0.188,1.378,0.281,2.08,0.281c4.33,0.002,7.841-3.507,7.843-7.837
	c0-0.704-0.094-1.404-0.281-2.083h2.359L38.426,36.145z M38.426,21.424c0,0.707-0.572,1.279-1.279,1.279h-2.563
	c-0.705,0-1.277-0.571-1.277-1.277c0,0,0-0.001,0-0.002v-2.561c0-0.707,0.57-1.279,1.277-1.279h2.563
	c0.707,0,1.279,0.572,1.279,1.279V21.424z"/>
<path id="pinterest" fill=" " d="M37.904,20.95c-0.387-1.329-0.998-2.395-1.836-3.31c-0.832-0.916-1.846-1.646-2.979-2.146
	c-1.359-0.6-2.84-0.877-4.324-0.81c-0.571,0.026-1.099,0.058-1.605,0.132c-1.53,0.224-2.791,0.686-3.906,1.347
	c-2.274,1.327-3.873,3.563-4.396,6.144c-0.197,1.07-0.197,2.167,0,3.237c0.324,1.701,1.117,3.015,2.422,3.733
	c0.175,0.098,0.434,0.248,0.639,0.244c0.497-0.011,0.511-0.599,0.617-1.022c0.093-0.353,0.306-0.838,0.12-1.164
	c-0.131-0.229-0.326-0.396-0.459-0.597c-0.418-0.635-0.678-1.449-0.678-2.5c0-1.362,0.333-2.458,0.837-3.41
	c0.963-1.817,2.598-3.136,4.915-3.532c1.272-0.219,2.709-0.104,3.747,0.232c1.047,0.342,1.904,0.949,2.514,1.711
	c0.637,0.801,1.039,1.833,1.125,3.117c0.047,0.695-0.002,1.399-0.068,2.014c-0.209,1.902-0.764,3.502-1.676,4.687
	c-0.566,0.739-1.424,1.524-2.648,1.567c-0.697,0.024-1.201-0.146-1.626-0.455c-0.434-0.304-0.736-0.759-0.851-1.274
	c-0.146-0.629,0.031-1.229,0.189-1.813c0.317-1.176,0.67-2.091,0.938-3.31c0.118-0.54,0.229-1.275,0.079-1.893
	c-0.138-0.578-0.435-0.986-0.866-1.244c-0.419-0.251-1.108-0.35-1.732-0.133c-0.98,0.344-1.617,1.28-1.896,2.338
	c-0.162,0.635-0.211,1.293-0.141,1.943c0.063,0.605,0.207,1.123,0.429,1.7c0.03,0.079-0.058,0.307-0.09,0.445
	c-0.488,2.075-0.95,4.102-1.436,6.164c-0.256,1.083-0.528,2.167-0.59,3.471c-0.054,1.146-0.146,2.32-0.009,3.34
	c0.026,0.188,0.038,0.316,0.171,0.345c0.174,0.036,0.053,0.304,0.625-0.363c0.864-1.003,1.523-2.239,2.044-3.521
	c0.313-0.773,0.502-1.629,0.72-2.471c0.218-0.854,0.429-1.728,0.638-2.562c0.322,0.565,0.774,0.938,1.315,1.244
	c0.545,0.31,1.19,0.522,1.981,0.577c0.814,0.058,1.576-0.09,2.242-0.282c0.621-0.183,1.213-0.456,1.756-0.812
	c2.02-1.315,3.363-3.628,3.838-6.457c0.125-0.755,0.309-1.51,0.309-2.368C38.301,22.382,38.105,21.643,37.904,20.95z"/>
<path id="twitter" fill=" " d="M38.33,20.385v-0.013c0.226-0.087,0.398-0.272,0.576-0.409c0.801-0.616,1.32-1.428,1.704-2.465
	c-0.218,0.118-0.437,0.238-0.652,0.357c-0.673,0.341-1.813,0.832-2.688,0.906c-1.034-0.941-2.117-1.684-4.151-1.646
	c-0.214,0.024-0.427,0.05-0.641,0.076c-0.415,0.09-0.812,0.203-1.166,0.357c-1.49,0.646-2.505,1.853-2.975,3.525
	c-0.187,0.666-0.263,1.778-0.023,2.466c-0.795-0.008-1.586-0.111-2.356-0.307c-2.772-0.683-4.503-1.604-6.421-3.104
	c-0.563-0.439-1.114-0.939-1.563-1.494c-0.146-0.179-0.372-0.336-0.478-0.55l-0.022-0.013c-0.225,0.413-0.434,0.86-0.563,1.367
	c-0.521,1.998,0.303,3.675,1.181,4.765c0.267,0.33,0.694,0.536,0.961,0.843h0.023c-0.197,0.074-0.544-0.027-0.718-0.063
	c-0.409-0.085-0.759-0.162-1.104-0.307l-0.537-0.255c-0.01,2.207,1.104,3.641,2.474,4.496c0.444,0.278,1.068,0.653,1.717,0.688
	c-0.347,0.293-1.83,0.16-2.345,0.104c0.645,1.657,1.633,2.76,3.332,3.359c0.438,0.154,0.973,0.291,1.563,0.281
	c-0.313,0.371-0.979,0.674-1.423,0.933c-0.908,0.53-1.964,0.876-3.15,1.137c-0.479,0.104-0.981,0.083-1.499,0.166
	c-0.569,0.093-1.168-0.048-1.681-0.063l0.463,0.28c0.469,0.286,0.958,0.536,1.485,0.769c0.951,0.414,1.965,0.729,3.088,1.009
	c2.264,0.562,5.456,0.31,7.433-0.308c5.502-1.713,8.979-5.717,10.288-11.61c0.228-1.015,0.261-2.166,0.242-3.374l0.82-0.65
	c0.678-0.542,1.313-1.299,1.781-2.044V19.58C40.41,19.86,39.471,20.373,38.33,20.385z"/>
</svg>
