<svg id="Layer_1" xmlns="http://www.w3.org/2000/svg" width="612" height="792"><path d="M31.085 24.02c.037-1.338-.21-3.201.206-3.837.761-1.164 3.798-.861 3.798-.861v-4.121c-4.792 0-6.36-.201-8.005 1.47-1.464 1.485-1.509 4.404-1.629 7.35h-2.351v4.028h2.375c0 4.202.002 8.807 0 12.754h5.582V27.998h3.217c.25-1.354.494-2.414.835-3.979l-4.028.001z" id="facebook"/><path d="M45.505 15.2h-19.2a3.2 3.2 0 0 0-3.2 3.2v19.2a3.2 3.2 0 0 0 3.2 3.2h19.2a3.2 3.2 0 0 0 3.199-3.2V18.4a3.2 3.2 0 0 0-3.199-3.2zM30.974 27.47c.006-.051.017-.1.022-.15.018-.123.035-.246.062-.367.012-.055.027-.106.042-.16.028-.115.059-.229.095-.34l.057-.156c.04-.107.082-.216.13-.32l.021-.055h.004a4.957 4.957 0 0 1 4.498-2.881 4.958 4.958 0 0 1 4.499 2.881h.004c.009.018.015.036.022.055.047.104.088.213.128.32.02.053.04.104.058.156.036.111.066.225.096.34.014.054.028.105.04.16.026.121.046.244.063.367.007.051.018.1.022.15a4.96 4.96 0 1 1-9.863 0zm14.85 9.171c0 .707-.572 1.28-1.278 1.28h-17.28a1.28 1.28 0 0 1-1.28-1.28v-10.72h2.36a7.84 7.84 0 0 0 7.56 9.92 7.84 7.84 0 0 0 7.562-9.92h2.358l-.002 10.72zm0-14.72c0 .707-.572 1.279-1.278 1.279h-2.562a1.278 1.278 0 0 1-1.279-1.279V19.36c0-.707.572-1.279 1.279-1.279h2.562c.706 0 1.278.572 1.278 1.279v2.561z" id="instagram"/><path d="M42.301 21.471c-.387-1.329-.997-2.395-1.835-3.31a8.862 8.862 0 0 0-2.979-2.146 9.646 9.646 0 0 0-4.325-.81c-.571.027-1.098.058-1.605.132-1.531.224-2.791.686-3.907 1.347a9.232 9.232 0 0 0-4.396 6.143 8.944 8.944 0 0 0 0 3.238c.324 1.701 1.117 3.014 2.422 3.734.175.097.433.247.638.243.497-.01.51-.597.618-1.022.092-.353.305-.838.12-1.164-.131-.229-.326-.396-.459-.597-.418-.635-.678-1.449-.678-2.5 0-1.362.333-2.458.837-3.41.963-1.818 2.598-3.136 4.915-3.532 1.273-.219 2.71-.105 3.747.232 1.046.342 1.905.949 2.513 1.711.637.801 1.039 1.833 1.126 3.117.047.695-.002 1.4-.069 2.014-.21 1.902-.763 3.502-1.675 4.686-.569.74-1.424 1.525-2.65 1.568-.697.025-1.201-.145-1.627-.455a2.113 2.113 0 0 1-.849-1.275c-.146-.629.031-1.228.189-1.812.318-1.176.67-2.091.938-3.31.118-.54.229-1.275.079-1.892-.138-.579-.435-.987-.867-1.245-.419-.251-1.109-.349-1.733-.132-.98.343-1.617 1.28-1.895 2.338a5.459 5.459 0 0 0-.14 1.943c.063.605.207 1.123.429 1.7.03.079-.058.307-.09.445-.489 2.076-.95 4.101-1.436 6.164-.255 1.083-.528 2.167-.589 3.471-.053 1.145-.147 2.32-.008 3.34.026.188.038.316.17.344.174.036.052.303.625-.364.865-1.002 1.524-2.24 2.044-3.521.313-.773.502-1.628.719-2.47.218-.854.429-1.727.638-2.561.322.566.775.939 1.316 1.244.544.309 1.19.523 1.982.578.814.057 1.575-.09 2.242-.283a6.603 6.603 0 0 0 1.755-.811c2.02-1.316 3.363-3.629 3.838-6.457.126-.755.309-1.51.309-2.368 0-.853-.196-1.593-.397-2.285z" id="pinterest"/><path d="M45.732 20.872v-.013c.224-.087.398-.272.576-.409.8-.616 1.32-1.428 1.704-2.465-.218.118-.437.238-.653.357-.672.341-1.813.832-2.689.906-1.034-.941-2.117-1.684-4.151-1.646-.214.024-.427.05-.641.076-.415.09-.811.203-1.166.357-1.49.646-2.505 1.853-2.974 3.525-.186.666-.262 1.778-.024 2.466a10.02 10.02 0 0 1-2.357-.307c-2.773-.683-4.502-1.604-6.42-3.104-.563-.439-1.115-.939-1.563-1.494-.146-.179-.372-.336-.476-.55l-.024-.013c-.224.413-.433.86-.563 1.367-.521 1.998.302 3.675 1.179 4.765.267.33.696.536.961.843h.025c-.198.074-.544-.027-.718-.063-.409-.085-.759-.162-1.103-.307l-.538-.255c-.009 2.207 1.106 3.641 2.474 4.496.444.278 1.068.654 1.717.689-.347.293-1.83.159-2.345.103.644 1.657 1.633 2.76 3.332 3.359.438.155.973.292 1.563.281-.313.372-.98.675-1.422.933-.909.531-1.964.876-3.152 1.137-.477.104-.981.083-1.499.166-.569.093-1.168-.048-1.679-.063l.462.28c.468.286.958.536 1.486.768.951.415 1.965.73 3.088 1.009 2.263.562 5.456.31 7.431-.307 5.502-1.714 8.979-5.717 10.289-11.611.227-1.015.26-2.166.243-3.374l.82-.65c.678-.542 1.313-1.299 1.781-2.044v-.013c-.894.28-1.835.793-2.974.805z" id="twitter"/></svg>